<svg xmlns="http://www.w3.org/2000/svg" xmlns:xlink="http://www.w3.org/1999/xlink" width="500" zoomAndPan="magnify" viewBox="0 0 375 374.999991" height="500" preserveAspectRatio="xMidYMid meet" version="1.2"><defs><clipPath id="2e4529f22c"><path d="M 9 112 L 131 112 L 131 229 L 9 229 Z M 9 112 "/></clipPath><clipPath id="07046a4f48"><path d="M -14.511719 140.925781 L 60.320312 56.082031 L 187.589844 168.332031 L 112.757812 253.179688 Z M -14.511719 140.925781 "/></clipPath><clipPath id="bd9b8f0e85"><path d="M -14.511719 140.925781 L 60.320312 56.082031 L 187.589844 168.332031 L 112.757812 253.179688 Z M -14.511719 140.925781 "/></clipPath><clipPath id="fed02d8fe0"><path d="M 63 51 L 185 51 L 185 168 L 63 168 Z M 63 51 "/></clipPath><clipPath id="4c3da2ead4"><path d="M 39.613281 79.558594 L 114.449219 -5.289062 L 241.71875 106.960938 L 166.882812 191.808594 Z M 39.613281 79.558594 "/></clipPath><clipPath id="f3c55067ce"><path d="M 39.613281 79.558594 L 114.449219 -5.289062 L 241.71875 106.960938 L 166.882812 191.808594 Z M 39.613281 79.558594 "/></clipPath><clipPath id="dd31a5c4c3"><rect x="0" width="235" y="0" height="239"/></clipPath><clipPath id="6079e85d2b"><rect x="0" width="330" y="0" height="375"/></clipPath></defs><g id="931cabf45f"><g transform="matrix(1,0,0,1,110,20)"><g clip-path="url(#dd31a5c4c3)"><g clip-rule="nonzero" clip-path="url(#2e4529f22c)"><g clip-rule="nonzero" clip-path="url(#07046a4f48)"><g clip-rule="nonzero" clip-path="url(#bd9b8f0e85)"><path style=" stroke:none;fill-rule:nonzero;fill:#18cb96;fill-opacity:1;" d="M 125.324219 112.683594 L 23.855469 118.53125 C 4.253906 119.660156 4.847656 158 28.03125 156.261719 L 91.058594 151.535156 L 92.726562 215.273438 C 93.234375 234.679688 131.003906 232.871094 130.074219 213.1875 Z M 125.324219 112.683594 "/></g></g></g><g clip-rule="nonzero" clip-path="url(#fed02d8fe0)"><g clip-rule="nonzero" clip-path="url(#4c3da2ead4)"><g clip-rule="nonzero" clip-path="url(#f3c55067ce)"><path style=" stroke:none;fill-rule:nonzero;fill:#18cb96;fill-opacity:1;" d="M 179.449219 51.316406 L 77.984375 57.160156 C 58.382812 58.289062 58.976562 96.632812 82.15625 94.894531 L 145.183594 90.164062 L 146.855469 153.902344 C 147.363281 173.308594 185.132812 171.5 184.203125 151.816406 Z M 179.449219 51.316406 "/></g></g></g></g></g><g transform="matrix(1,0,0,1,12,0)"><g clip-path="url(#6079e85d2b)"><g style="fill:#18cb96;fill-opacity:1;"><g transform="translate(0.000003712, 368.321824)"><path style="stroke:none" d="M 302.21875 -144.46875 C 303.582031 -144.46875 305.285156 -144.46875 307.328125 -144.46875 C 309.367188 -144.46875 310.390625 -144.46875 310.390625 -144.46875 C 310.390625 -111.800781 308.257812 -85.765625 304 -66.359375 C 299.75 -46.960938 293.625 -32.5 285.625 -22.96875 C 277.632812 -13.4375 267.9375 -7.140625 256.53125 -4.078125 C 245.132812 -1.015625 232.203125 0.34375 217.734375 0 C 203.265625 -0.34375 187.523438 -0.515625 170.515625 -0.515625 L 130.6875 -0.515625 C 120.132812 -0.515625 110.601562 -3.148438 102.09375 -8.421875 C 93.59375 -13.703125 86.875 -20.765625 81.9375 -29.609375 C 77 -38.460938 74.703125 -48.160156 75.046875 -58.703125 L 79.125 -158.765625 C 79.125 -158.765625 79.207031 -161.398438 79.375 -166.671875 C 79.550781 -171.953125 79.722656 -178.503906 79.890625 -186.328125 C 80.066406 -194.160156 80.238281 -202.242188 80.40625 -210.578125 C 80.570312 -218.921875 80.65625 -226.328125 80.65625 -232.796875 C 80.65625 -239.265625 80.488281 -243.6875 80.15625 -246.0625 C 77.09375 -269.550781 69.265625 -289.289062 56.671875 -305.28125 C 44.078125 -321.28125 28.25 -335.75 9.1875 -348.6875 L 9.1875 -357.875 L 166.9375 -357.875 L 166.9375 -348.6875 C 147.539062 -335.75 131.546875 -321.28125 118.953125 -305.28125 C 106.359375 -289.289062 98.53125 -269.382812 95.46875 -245.5625 C 95.125 -242.832031 94.867188 -236.785156 94.703125 -227.421875 C 94.535156 -218.066406 94.363281 -207.519531 94.1875 -195.78125 C 94.019531 -184.039062 93.765625 -173.066406 93.421875 -162.859375 C 93.421875 -159.453125 93.332031 -154.429688 93.15625 -147.796875 C 92.988281 -141.160156 93.5 -134.519531 94.6875 -127.875 C 95.882812 -121.238281 98.863281 -115.539062 103.625 -110.78125 C 108.394531 -106.019531 115.546875 -103.640625 125.078125 -103.640625 C 148.554688 -103.640625 167.953125 -103.640625 183.265625 -103.640625 C 198.585938 -103.640625 211.269531 -103.804688 221.3125 -104.140625 C 231.351562 -104.484375 239.773438 -105.164062 246.578125 -106.1875 C 253.390625 -107.207031 260.023438 -108.910156 266.484375 -111.296875 C 273.628906 -114.359375 280.519531 -118.523438 287.15625 -123.796875 C 293.800781 -129.078125 298.820312 -135.96875 302.21875 -144.46875 Z M 302.21875 -144.46875 "/></g></g></g></g></g></svg>